<svg id="Layer_1" data-name="Layer 1" xmlns="http://www.w3.org/2000/svg" xmlns:xlink="http://www.w3.org/1999/xlink" viewBox="0 0 1559.54 327"><defs><style>.cls-1{fill:none;}.cls-2{clip-path:url(#clip-path);}.cls-3{clip-path:url(#clip-path-2);}.cls-4{fill:#231f20;}.cls-5{fill:#fcb76e;}.cls-6{fill:#d57e47;}.cls-7{fill:#f89948;}.cls-8{fill:#b8292f;}.cls-9{font-size:57.89px;fill:#221f20;font-family:ArialMT;}</style><clipPath id="clip-path"><rect class="cls-1" width="1559.54" height="327"/></clipPath><clipPath id="clip-path-2"><rect class="cls-1" width="1559.54" height="327"/></clipPath></defs><title>Evyavan</title><g class="cls-2"><g class="cls-3"><path class="cls-4" d="M598.55,254.88H616.6c5.17,0,9.31,1.56,11.95,4.21a11.6,11.6,0,0,1,3.24,8.28v.12c0,7-4.8,11-11.4,12.24l12.9,17.16h-5.82l-12.19-16.33h-12v16.33h-4.74Zm17.63,21.42c6.31,0,10.81-3.24,10.81-8.63v-.13c0-5.16-4-8.28-10.74-8.28h-13v17Z"/><polygon class="cls-4" points="651.47 254.88 681.84 254.88 681.84 259.21 656.22 259.21 656.22 273.55 679.14 273.55 679.14 277.87 656.22 277.87 656.22 292.56 682.13 292.56 682.13 296.89 651.47 296.89 651.47 254.88"/><polygon class="cls-4" points="701.23 254.88 705.98 254.88 705.98 292.51 729.62 292.51 729.62 296.89 701.23 296.89 701.23 254.88"/><path class="cls-4" d="M763.47,254.58h4.44l19.14,42.31H782L777,285.79H754.17l-5,11.1h-4.86Zm11.7,26.95-9.54-21.42L756,281.53Z"/><polygon class="cls-4" points="810.58 259.26 796.48 259.26 796.48 254.88 829.48 254.88 829.48 259.26 815.38 259.26 815.38 296.89 810.58 296.89 810.58 259.26"/><rect class="cls-4" x="848.33" y="254.88" width="4.74" height="42.01"/><path class="cls-4" d="M873.08,276v-.11c0-11.59,8.7-21.73,21.49-21.73s21.35,10,21.35,21.61v.12c0,11.58-8.69,21.72-21.47,21.72s-21.37-10-21.37-21.61M911,276v-.11c0-9.55-7-17.35-16.56-17.35S878,266.22,878,275.77v.12c0,9.53,7,17.34,16.56,17.34S911,285.55,911,276"/><polygon class="cls-4" points="935.49 254.88 939.93 254.88 966.39 288.54 966.39 254.88 971.01 254.88 971.01 296.89 967.24 296.89 940.11 262.45 940.11 296.89 935.49 296.89 935.49 254.88"/><path class="cls-4" d="M989.68,290.76l2.94-3.47c4.37,4,8.58,5.94,14.4,5.94,5.63,0,9.36-3,9.36-7.14V286c0-3.91-2.1-6.13-10.92-8-9.67-2.1-14.11-5.23-14.11-12.12v-.12c0-6.61,5.83-11.47,13.81-11.47a21.91,21.91,0,0,1,14.76,5.16l-2.76,3.66a18.47,18.47,0,0,0-12.12-4.56c-5.46,0-8.95,3-8.95,6.78v.13c0,4,2.17,6.18,11.4,8.15s13.69,5.46,13.69,11.89v.11c0,7.21-6,11.89-14.34,11.89a24.54,24.54,0,0,1-17.16-6.73"/><polygon class="cls-4" points="1040.39 254.88 1045.13 254.88 1045.13 273.55 1069.37 273.55 1069.37 254.88 1074.11 254.88 1074.11 296.89 1069.37 296.89 1069.37 277.99 1045.13 277.99 1045.13 296.89 1040.39 296.89 1040.39 254.88"/><rect class="cls-4" x="1095.95" y="254.88" width="4.74" height="42.01"/><path class="cls-4" d="M1122.57,254.88h15.72c9.49,0,15.73,5,15.73,13.33v.11c0,9.07-7.56,13.74-16.51,13.74h-10.2v14.83h-4.74Zm15.12,22.86c7,0,11.52-3.71,11.52-9.23v-.12c0-6-4.49-9.13-11.28-9.13h-10.62v18.48Z"/><path class="cls-4" d="M1169.44,290.76l3-3.47c4.38,4,8.58,5.94,14.4,5.94,5.64,0,9.36-3,9.36-7.14V286c0-3.91-2.1-6.13-10.92-8-9.66-2.1-14.1-5.23-14.1-12.12v-.12c0-6.61,5.82-11.47,13.8-11.47a21.89,21.89,0,0,1,14.76,5.16l-2.76,3.66a18.45,18.45,0,0,0-12.12-4.56c-5.46,0-8.94,3-8.94,6.78v.13c0,4,2.15,6.18,11.4,8.15s13.69,5.46,13.69,11.89v.11c0,7.21-6,11.89-14.36,11.89a24.54,24.54,0,0,1-17.16-6.73"/><polygon class="cls-4" points="1247.73 254.88 1277.92 254.88 1277.92 259.26 1252.48 259.26 1252.48 274.27 1275.22 274.27 1275.22 278.59 1252.48 278.59 1252.48 296.89 1247.73 296.89 1247.73 254.88"/><rect class="cls-4" x="1297.07" y="254.88" width="4.74" height="42.01"/><path class="cls-4" d="M1323.68,254.88h18.06c5.16,0,9.3,1.56,11.94,4.21a11.57,11.57,0,0,1,3.25,8.28v.12c0,7-4.8,11-11.4,12.24l12.89,17.16h-5.81l-12.19-16.33h-12v16.33h-4.74Zm17.64,21.42c6.3,0,10.81-3.24,10.81-8.63v-.13c0-5.16-4-8.28-10.74-8.28h-13v17Z"/><path class="cls-4" d="M1373.85,290.76l2.94-3.47c4.39,4,8.58,5.94,14.41,5.94,5.64,0,9.36-3,9.36-7.14V286c0-3.91-2.1-6.13-10.92-8-9.66-2.1-14.1-5.23-14.1-12.12v-.12c0-6.61,5.82-11.47,13.8-11.47a21.91,21.91,0,0,1,14.76,5.16l-2.77,3.66a18.41,18.41,0,0,0-12.12-4.56c-5.46,0-8.93,3-8.93,6.78v.13c0,4,2.15,6.18,11.4,8.15s13.68,5.46,13.68,11.89v.11c0,7.21-6,11.89-14.35,11.89a24.54,24.54,0,0,1-17.16-6.73"/><polygon class="cls-4" points="1434.78 259.26 1420.67 259.26 1420.67 254.88 1453.68 254.88 1453.68 259.26 1439.57 259.26 1439.57 296.89 1434.78 296.89 1434.78 259.26"/><path class="cls-5" d="M302.31,191.45a128.72,128.72,0,0,0-23-52c-19.62-26.83-50.27-48.53-89.8-57.63q-7.8-1.84-16.05-3C97,68.42,38.7,134.64,38.7,134.64s-8,87.84,52.2,136.22c52.21,41.95,114.22,44.85,158.76,22.7A116.63,116.63,0,0,0,261.22,287a74,74,0,0,0,15.9-12.82A135.5,135.5,0,0,0,297.55,246c.12-.22,10.52-30.77,4.76-54.55"/><path class="cls-5" d="M518,137.35s-58.26-66.21-134.8-55.77a167.22,167.22,0,0,0-17.31,3.27c-37.6,9-67.1,29.32-86.57,54.62a129.58,129.58,0,0,0-25,54.7c-5.72,23.78,4.68,54.28,4.79,54.54a138,138,0,0,0,17.95,25.49c5.28,5.87,11.48,11.56,18.35,15.5,2.31,1.48,4.65,2.9,7.1,4.23,44.85,24.64,109.27,23,163.26-20.36C526,225.19,518,137.35,518,137.35"/><path class="cls-5" d="M328.73,281.71c-7.69,5.76-17.28,9.62-26.16,12.22a134.87,134.87,0,0,1-25.86,4.95,135.33,135.33,0,0,1-27-5.32c-8.51-2.56-17.61-6.35-24.93-11.85-44.36-29.84-72-92.52-52.5-162.86a124.32,124.32,0,0,1,17.32-37c31.8-46.71,87.16-64.77,87.16-64.77s57.74,18.84,89.21,67.78a124.94,124.94,0,0,1,15.31,34c19.46,70.34-8.18,133-52.5,162.86"/><path class="cls-6" d="M279.35,139.47a128.67,128.67,0,0,1,23,52c5.76,23.78-4.64,54.33-4.75,54.55a136.21,136.21,0,0,1-20.44,28.2,137.08,137.08,0,0,1-17.94-25.49c-.12-.26-10.52-30.76-4.8-54.54a129.58,129.58,0,0,1,25-54.7"/><path class="cls-7" d="M381.23,118.85c19.47,70.34-8.18,133-52.5,162.86-7.69,5.76-17.28,9.62-26.16,12.22-2.45-1.33-4.79-2.75-7.1-4.23-6.87-3.94-13.07-9.63-18.35-15.5A136.21,136.21,0,0,0,297.56,246c.11-.22,10.51-30.77,4.75-54.55a128.67,128.67,0,0,0-23-52c19.47-25.3,49-45.67,86.57-54.62a124.94,124.94,0,0,1,15.31,34"/><path class="cls-7" d="M189.55,81.84c39.53,9.1,70.18,30.8,89.8,57.63a129.58,129.58,0,0,0-25,54.7c-5.72,23.78,4.68,54.28,4.8,54.54a137.08,137.08,0,0,0,17.94,25.49A74,74,0,0,1,261.22,287a116.63,116.63,0,0,1-11.56,6.54c-8.5-2.56-17.61-6.35-24.93-11.85-44.36-29.84-72-92.52-52.5-162.86a124.32,124.32,0,0,1,17.32-37"/><path class="cls-8" d="M592.61,190.77V40.06a17.53,17.53,0,0,1,17.61-17.61H714.93V51.31H626.86V87.53h65.56V98.78a17.55,17.55,0,0,1-17.61,17.62H626.86v43h88.07v31.32Z"/><path class="cls-8" d="M801.05,190.77H766.31L720.81,60.62H757L783,152.11l23-79.75q3.91-11.74,15.65-11.74h25.45Z"/><path class="cls-8" d="M871.51,236.76V209.85h9.3q9.78,0,15.41-4.65t2.21-14.92L852.92,60.62h37.67l26.43,92,23-80.24q2.93-11.74,15.65-11.74h23.49L929.25,208.87q-5.88,16.15-14.68,23-8.8,5.87-28.87,5.87h-6.85a17.09,17.09,0,0,0-3.66-.73,30.82,30.82,0,0,0-3.68-.25"/><path class="cls-8" d="M1063.2,185.38a60.18,60.18,0,0,1-21.78,6.61,196,196,0,0,1-20.3,1.22q-17.61,0-30.82-9.53t-13.22-31.56q0-20.56,12-29.36T1019.66,111a28.73,28.73,0,0,0,5.87-.73q3.4-.73,7.82-1.23,21.54-2.92,21.54-12.72,0-7.33-7.6-9.54a50.29,50.29,0,0,0-13.94-2.2,36,36,0,0,0-12.23,2,13.36,13.36,0,0,0-7.83,7.35H980.51a37.68,37.68,0,0,1,13.7-25q13.21-11.25,37.68-11.25,27.39,0,41.1,9.3,14.19,9.78,14.19,27.4V138.9q0,19.57-7.1,30.59t-16.88,15.89m-7.82-60.18q-6.87,3.43-19.1,6.36L1025,134q-8.81,2.44-12.72,6.36a19.86,19.86,0,0,0-3.42,10.76q0,7.35,4.4,11.75,4.41,3.92,12.73,3.91,13.68,0,21.52-7.83t7.84-21.53Z"/><path class="cls-8" d="M1171.81,190.77h-34.73L1091.57,60.62h36.21l25.93,91.49,23-79.75q3.91-11.74,15.66-11.74h25.44Z"/><path class="cls-8" d="M1306.36,185.38a60.13,60.13,0,0,1-21.77,6.61,196.18,196.18,0,0,1-20.31,1.22q-17.61,0-30.82-9.53t-13.21-31.56q0-20.56,12-29.36T1262.81,111a28.49,28.49,0,0,0,5.87-.73c2.28-.49,4.9-.9,7.83-1.23Q1298,106.13,1298,96.33q0-7.33-7.58-9.54a50.3,50.3,0,0,0-14-2.2,36,36,0,0,0-12.23,2,13.36,13.36,0,0,0-7.83,7.35h-32.78a37.64,37.64,0,0,1,13.7-25q13.22-11.25,37.67-11.25,27.4,0,41.11,9.3,14.17,9.78,14.19,27.4V138.9q0,19.57-7.1,30.59t-16.88,15.89m-7.83-60.18q-6.85,3.43-19.08,6.36L1268.2,134q-8.82,2.44-12.72,6.36a19.88,19.88,0,0,0-3.43,10.76q0,7.35,4.4,11.75,4.4,3.92,12.72,3.91,13.71,0,21.54-7.83t7.82-21.53Z"/><path class="cls-8" d="M1453.76,190.77h-17.13A15.93,15.93,0,0,1,1420,174.13V107.59q0-11.75-7.09-17.13A25.73,25.73,0,0,0,1397,85.08a24.71,24.71,0,0,0-15.66,5.38q-6.86,5.39-6.84,17.13v83.18h-34.26V114.44q0-33.27,17.37-44.53A76,76,0,0,1,1396,57.68a73.65,73.65,0,0,1,39.63,11.25q18.09,11.26,18.11,45.51Z"/></g><text class="cls-9" transform="translate(1463.34 90.48)">®</text></g></svg>